<?xml version="1.0" encoding="utf-8"?>
<!DOCTYPE svg PUBLIC "-//W3C//DTD SVG 1.0//EN" "http://www.w3.org/TR/2001/REC-SVG-20010904/DTD/svg10.dtd">
<svg version="1.0" xmlns="http://www.w3.org/2000/svg" width="426px" height="272px"
	viewBox="0 0 426 272" preserveAspectRatio="xMidYMid meet">
	<g fill="#ffffff" fill-opacity="0">
		<path
			d="M0 136 l0 -136 213 0 213 0 0 136 0 136 -213 0 -213 0 0 -136z m175.10 86.15 c0.45 -0.50 2.45 -3.80 4.50 -7.40 2.05 -3.55 4.25 -7.30 4.85 -8.35 0.65 -1.05 0.90 -1.95 0.60 -2.10 -0.25 -0.15 -2.40 3.15 -4.80 7.30 -2.35 4.20 -4.75 8.05 -5.35 8.55 -0.95 0.80 -3.95 0.85 -47.10 0.85 -25.30 0 -46.50 -0.15 -47.05 -0.30 -0.95 -0.25 -2.45 -2.60 -10.30 -16.40 -3.10 -5.45 -11.15 -19.40 -14.60 -25.40 -22.25 -38.35 -21.30 -36.65 -21.35 -39.30 0 -2.25 -0.65 -1.10 21.05 -38.60 4.20 -7.30 11.40 -19.75 16 -27.75 l8.35 -14.50 47.15 -0.10 c25.95 -0.10 47.45 0.05 47.75 0.25 0.30 0.20 2.65 4 5.20 8.45 3.95 6.95 5.50 9.15 5.50 7.90 0 -0.55 -9.45 -16.80 -10.40 -17.85 -0.70 -0.85 -3.60 -0.90 -47.55 -0.90 -25.75 0 -47.05 0.20 -47.40 0.40 -0.30 0.20 -2.25 3.30 -4.30 6.85 -2.05 3.60 -7.50 13.05 -12.10 21 -4.60 8 -11.80 20.45 -16 27.75 -4.20 7.30 -9.35 16.30 -11.50 20 -2.15 3.70 -3.90 7 -3.90 7.25 0 0.30 1.75 3.55 3.90 7.25 3.80 6.55 9.20 15.90 27.50 47.75 4.90 8.55 9.25 16.05 9.75 16.75 0.45 0.70 1.80 3.05 2.95 5.25 1.20 2.20 2.65 4.50 3.20 5.15 l1 1.10 46.85 0 c44 0 46.90 -0.05 47.60 -0.85z m6.40 -66.80 l0 -19.15 -7.20 -7.10 c-3.95 -3.90 -7.55 -7.10 -8 -7.10 -0.95 0 -2.60 3.15 -4.80 9.25 -0.90 2.50 -1.85 4.80 -2.15 5.15 -0.65 0.85 -5 0.60 -8.45 -0.40 -1.70 -0.50 -2.55 -0.55 -2.95 -0.15 -0.35 0.35 0.10 0.85 1.70 1.60 1.20 0.60 2.60 1.50 3.10 2.05 0.70 0.80 1.55 1 3.80 1 3.50 0 3.95 -0.40 5.50 -4.70 1.10 -3.20 1.20 -3.30 2.85 -3.30 1.50 0 2.30 0.55 5.90 4.20 l4.20 4.15 0 8.20 c0 4.50 0.15 12.10 0.35 16.85 l0.30 8.60 2.95 0 2.90 0 0 -19.15z m-102.40 15.80 c0.55 -0.85 1.05 -3.20 1.25 -5.70 l0.40 -4.20 15.75 0 15.75 0 0.30 4.60 c0.30 4.80 1 6.60 3 7.70 0.90 0.45 1.30 0.35 2.40 -0.40 1.90 -1.40 2.45 -2.85 2.90 -7.65 l0.40 -4.25 2.40 -0.15 2.45 -0.15 -0.20 -8.60 c-0.20 -9.75 -0.65 -11.35 -3.55 -13.35 -2.40 -1.65 -3.10 -2.95 -5.60 -10.80 -2.55 -7.80 -3.55 -9.45 -6.15 -10.20 -2.45 -0.65 -26.30 -0.65 -28.75 0.05 -2.40 0.65 -2.95 1.50 -5.55 9.25 -3.15 9.20 -3.50 9.95 -5.95 11.65 -3.20 2.20 -3.50 3.35 -3.55 13.25 l-0.05 8.55 1.50 0.15 c3.80 0.35 3.75 0.25 3.75 4.30 0 4.60 0.65 6.50 2.65 7.75 1.35 0.85 1.75 0.90 2.60 0.35 0.55 -0.35 1.40 -1.35 1.85 -2.15z m203.65 -3.55 c2.40 -1.20 5.85 -4.50 5.60 -5.30 -0.10 -0.30 -0.75 -0.90 -1.45 -1.25 -1.20 -0.70 -1.40 -0.65 -3.10 0.85 -2.10 1.80 -4.05 2.30 -8.70 2 -2.50 -0.10 -3.80 -0.45 -5 -1.30 -3.05 -2.20 -3.35 -3.35 -3.50 -13.55 -0.20 -10.50 0.20 -12.65 2.65 -15.05 1.75 -1.70 4.15 -2.45 7.85 -2.50 2.85 0 4.60 0.70 6.70 2.65 1.70 1.55 1.55 1.55 4.60 -0.45 0.10 -0.05 -0.20 -0.65 -0.60 -1.30 -1.25 -1.95 -4.85 -4.25 -7.95 -5.15 -2.45 -0.70 -3.30 -0.75 -5.50 -0.20 -5.65 1.30 -9.20 4.05 -11.40 8.80 -0.95 2.10 -1.15 3.45 -1.35 10.40 -0.25 8.75 0.25 12.25 2.20 15.30 1.75 2.80 4.70 5.35 7.45 6.45 3.25 1.30 8.60 1.15 11.50 -0.40z m-65.75 -1.85 l0 -2.75 -5.50 0 -5.50 0 0.10 -24.35 0.15 -24.40 5.40 -0.15 5.35 -0.15 0 -2.70 0 -2.75 -13.75 0 -13.75 0 0 2.75 0 2.75 5.50 0 5.50 0 0 24.50 0 24.50 -5.50 0 -5.50 0 0 2.75 0 2.75 13.75 0 13.75 0 0 -2.75z m27.25 1.15 c4.40 -2.30 6.45 -5.35 6.50 -9.70 0 -5.45 -2.65 -7.95 -11.95 -11 -5.60 -1.90 -8.75 -3.35 -9.40 -4.40 -0.20 -0.30 -0.40 -1.85 -0.40 -3.45 0 -2.65 0.15 -3.10 1.55 -4.40 l1.55 -1.45 8.20 0 8.20 0 0 -2.50 0 -2.50 -6.90 0 c-8.90 0 -11.15 0.60 -14.20 3.90 -2.60 2.80 -3.65 5.40 -3.25 8.20 0.55 4.25 4.85 7.35 14.45 10.45 6.80 2.15 7.40 2.70 7.40 6.75 0 2.80 -0.15 3.35 -1.45 4.80 l-1.45 1.65 -9.30 0.15 -9.30 0.15 0 2.15 c0 1.15 0.15 2.30 0.40 2.50 0.20 0.20 4.05 0.30 8.60 0.20 7.75 -0.15 8.40 -0.25 10.75 -1.50z m62.65 -7.50 l0.10 -8.90 5.25 0 5.25 0 4.50 9 4.50 9 2.05 0 2 0 -4.75 -9.35 c-3.65 -7.05 -4.80 -9.80 -4.80 -11.25 0 -1.45 1.15 -4.20 4.75 -11.15 l4.75 -9.25 -2 0 -2 0 -4.50 9 -4.50 9 -5.25 0 -5.25 0 -0.10 -18.35 -0.15 -18.40 -5.60 -0.15 -5.65 -0.15 0 2.50 0 2.50 3.15 0.15 3.10 0.15 -0.20 22.75 c-0.05 12.50 0 24.85 0.20 27.40 l0.40 4.65 2.30 -0.15 2.30 -0.15 0.15 -8.85z m50.10 6.60 l0 -2.45 -3.85 -0.15 -3.90 -0.15 -0.15 -12.95 c-0.10 -12.85 -0.10 -13 1 -14.20 1.95 -2.05 4.75 -3.15 9.10 -3.50 l4.05 -0.35 0.15 -2.85 0.15 -2.90 -1.65 0 c-1.95 0 -7.25 2.40 -8.60 3.95 -0.60 0.65 -1.55 1.05 -2.65 1.05 -1.60 0 -1.65 -0.05 -1.65 -2 l0 -2 -5.45 0 -5.45 0 -0.20 2.30 c-0.10 1.25 -0.05 2.35 0.05 2.50 0.10 0.10 1.55 0.20 3.15 0.20 l2.90 0 0 15.50 0 15.50 -4 0 -4 0 0 2.50 0 2.50 10.50 0 10.50 0 0 -2.50z m40.50 -11.90 c0 -15.95 -0.25 -17.70 -3 -21.45 -1 -1.35 -2.55 -2.60 -4.40 -3.50 -2.60 -1.25 -3.45 -1.40 -9.20 -1.55 l-6.40 -0.20 0 2.55 0 2.55 6.70 0 c6.10 0 6.80 0.10 8.35 1.15 2.05 1.40 2.90 3.55 2.90 7.65 l0.05 3.10 -7.60 0.20 c-6.60 0.15 -7.95 0.35 -9.70 1.25 -2.35 1.25 -5.05 4.10 -6 6.45 -1.50 3.60 -0.60 8.50 2.20 11.70 3.25 3.85 5.40 4.40 17.25 4.45 l8.85 0.05 0 -14.40z m-236 -36.40 c0.75 -0.45 1.70 -1.40 2.15 -2.15 0.65 -1.10 0.65 -1.50 0.10 -2.60 -0.40 -0.70 -1.30 -1.70 -2 -2.15 -1.15 -0.75 -1.40 -0.75 -2.75 -0.05 -1.55 0.80 -2.50 2.15 -2.50 3.55 0 0.75 2.80 4.20 3.40 4.20 0.10 0 0.80 -0.35 1.60 -0.80z" />
		<path
			d="M75.15 153.50 c-2.35 -1 -3.30 -4.95 -1.95 -8.25 0.95 -2.20 2.10 -2.75 6 -2.75 3 0 3.30 0.10 4.25 1.45 1.55 2.15 1.45 6.50 -0.10 8.35 -1 1.15 -1.65 1.40 -4.15 1.55 -1.60 0.05 -3.45 -0.05 -4.05 -0.35z" />
		<path
			d="M110.60 153.20 c-2.20 -1.15 -2.75 -2.35 -2.50 -5.60 0.20 -2.35 0.50 -3 1.85 -4.20 1.30 -1.15 2 -1.40 4.10 -1.40 2.25 0 2.75 0.20 4.30 1.75 1.70 1.70 1.75 1.90 1.55 4.80 -0.30 3.85 -1.25 4.90 -4.95 5.25 -1.95 0.15 -3.15 0 -4.35 -0.60z" />
		<path
			d="M81.15 137.15 l-4.65 -0.20 0 -2.45 c0 -2.45 3.35 -13.05 4.50 -14.20 0.70 -0.70 29.95 -1.05 30.65 -0.35 1 1 4.90 13.70 4.75 15.50 l-0.15 1.80 -15.25 0 c-8.40 0.05 -17.35 -0.05 -19.85 -0.10z" />
		<path
			d="M376.70 162.80 c-2.50 -1.10 -3.20 -2.55 -3.20 -6.55 0 -3.05 0.15 -3.70 1.15 -4.60 2.10 -1.95 3.15 -2.15 10.60 -2.15 l7.30 0 -0.15 6.90 -0.15 6.85 -7 0.10 c-5.05 0.10 -7.45 -0.05 -8.55 -0.55z" />
	</g>
	<g fill="#5882d4">
		<path
			d="M78.15 223.40 c-0.55 -0.65 -2 -2.95 -3.20 -5.15 -1.15 -2.20 -2.50 -4.55 -2.95 -5.25 -0.50 -0.70 -4.85 -8.20 -9.75 -16.75 -4.90 -8.50 -12.75 -22.15 -17.40 -30.25 -4.70 -8.10 -9.95 -17.20 -11.70 -20.25 -1.70 -3 -3.15 -5.75 -3.15 -6.05 0 -0.30 1.95 -3.90 4.30 -8 2.40 -4.10 7.75 -13.40 11.95 -20.70 4.20 -7.30 11.40 -19.75 16 -27.75 4.60 -7.95 10.05 -17.40 12.10 -21 2.05 -3.55 4 -6.65 4.30 -6.85 0.35 -0.20 22.35 -0.40 48.90 -0.40 45.35 0 48.35 0.05 49.05 0.90 1.30 1.45 11.40 19.05 11.40 19.85 0 0.75 -3.25 2.70 -3.90 2.30 -0.30 -0.15 -2.70 -4.15 -5.40 -8.80 -2.65 -4.70 -5.10 -8.65 -5.40 -8.85 -0.30 -0.20 -21.10 -0.35 -46.25 -0.25 l-45.65 0.10 -8.35 14.50 c-4.60 8 -11.80 20.45 -16 27.75 -17.95 31 -21.05 36.50 -21.05 37.10 0.05 0.85 2.70 5.65 15.65 28.05 1.60 2.65 4.10 7.05 5.70 9.75 3.45 6 11.50 19.95 14.60 25.40 7.85 13.80 9.35 16.15 10.30 16.40 0.55 0.15 21.10 0.30 45.65 0.30 l44.65 0 1.10 -1.10 c0.60 -0.65 3.10 -4.70 5.55 -9 2.45 -4.35 4.70 -7.90 5 -7.90 0.65 0 2.90 1.45 3.40 2.20 0.20 0.30 -0.30 1.65 -1.05 3.05 -3.65 6.60 -9.25 16.10 -9.95 16.90 -0.70 0.80 -3.70 0.85 -49.10 0.85 l-48.35 0 -1 -1.10z" />
		<path
			d="M154.15 175.50 c-5.55 -1.10 -9.70 -6.60 -8.15 -10.75 0.30 -0.80 1.75 -2.95 3.20 -4.75 3.75 -4.65 4.45 -6.15 4.70 -10.55 0.30 -5.35 -1.30 -8.35 -5.70 -10.45 -2.40 -1.20 -2.85 -2 -2.20 -3.75 0.70 -1.80 2.45 -2 6.80 -0.70 2.65 0.80 4.05 1 4.60 0.65 0.40 -0.25 1.70 -2.95 2.85 -5.95 2.35 -6.25 3.35 -8.30 4.50 -9.25 1.40 -1.20 4.45 0.95 11.65 8.15 l6.65 6.65 -0.05 19.35 0 19.35 3.45 0 c3.85 0 5.05 0.30 5.05 1.25 0 0.35 -0.35 0.80 -0.80 0.95 -1.20 0.45 -34.15 0.25 -36.55 -0.20z m19.70 -8.85 c-0.20 -3.75 -0.35 -10.75 -0.35 -15.55 l0 -8.75 -4.25 -4.25 c-2.35 -2.35 -4.35 -4.15 -4.45 -4.05 -0.10 0.10 -0.75 1.80 -1.50 3.80 -1.50 3.95 -2.15 4.45 -5.60 4.20 l-2.05 -0.15 0.75 3.40 c1 4.55 0.25 8.35 -2.35 12.20 -1.05 1.50 -2.70 3.95 -3.70 5.45 -1.90 2.70 -2.20 4.10 -1.40 6.20 1.20 3.10 5.70 4.25 17 4.30 l8.20 0.05 -0.30 -6.85z" />
		<path
			d="M73.15 174.45 c-2 -1.25 -2.65 -3.15 -2.65 -7.75 0 -4.05 0.05 -3.95 -3.75 -4.30 l-1.50 -0.15 0 -10 c0.05 -11.50 0.30 -12.55 3.60 -14.80 2.45 -1.70 2.80 -2.45 5.95 -11.65 2.60 -7.75 3.15 -8.60 5.55 -9.25 2.50 -0.70 29.30 -0.70 31.75 -0.05 2.60 0.75 3.60 2.40 6.15 10.20 2.50 7.85 3.20 9.15 5.60 10.80 3 2.05 3.35 3.50 3.55 14.90 l0.20 10.10 -2.30 0 c-2.65 0 -2.50 -0.30 -3.20 5.75 -0.45 4.05 -0.60 4.55 -2.05 5.85 -2.60 2.30 -6.55 1.70 -8.15 -1.25 -0.30 -0.60 -0.70 -3.10 -0.85 -5.60 l-0.30 -4.50 -14.25 0 -14.25 0 -0.35 4 c-0.20 2.20 -0.65 4.60 -0.95 5.40 -1.35 3.20 -4.80 4.25 -7.80 2.30z m8.75 -23.75 c1.40 -1.55 1.40 -3.35 0.05 -5.25 -0.80 -1.15 -1.40 -1.45 -2.75 -1.45 -2.40 0 -3.65 0.75 -4.50 2.80 -0.65 1.50 -0.65 1.90 0.05 3.25 1.45 2.75 5 3.10 7.15 0.65z m35.20 0.35 c0.50 -0.45 1 -1.55 1.20 -2.40 0.30 -1.40 0.10 -1.85 -1.45 -3.40 -0.95 -0.95 -2.20 -1.75 -2.75 -1.75 -1.50 0 -3.95 2.30 -4.35 4 -0.40 1.90 0.30 3.15 2.35 4.15 1.85 0.90 3.70 0.65 5 -0.60z m-2.35 -15.50 c0.30 -0.55 -3.85 -13.35 -4.60 -14.10 -0.70 -0.70 -26.95 -0.35 -27.65 0.35 -0.70 0.70 -4.50 11.45 -4.50 12.70 0 0.85 0.45 1 4.65 1.15 11.20 0.40 31.80 0.30 32.10 -0.10z" />
		<path
			d="M129.65 141.45 c-0.80 -0.80 -0.25 -1.95 0.85 -1.95 1.25 0 1.75 0.90 1 1.75 -0.75 0.90 -1.10 0.95 -1.85 0.20z" />
		<path
			d="M133.60 139.70 c0.20 -1.05 1.10 -1.15 1.30 -0.05 0.10 0.50 -0.15 0.85 -0.65 0.85 -0.50 0 -0.75 -0.30 -0.65 -0.80z" />
		<path
			d="M137.50 138.50 c0 -0.75 0.25 -1 0.90 -0.90 0.45 0.10 0.85 0.50 0.85 0.90 0 0.40 -0.40 0.80 -0.85 0.90 -0.65 0.10 -0.90 -0.15 -0.90 -0.90z" />
		<path
			d="M141.50 137.55 c0 -0.75 0.30 -1.05 1.05 -1.05 0.70 0 0.95 0.25 0.85 0.85 -0.25 1.30 -1.90 1.45 -1.90 0.20z" />
		<path
			d="M126.60 135.65 c0.20 -1.10 2.15 -1.25 2.15 -0.15 0 0.40 -0.55 0.80 -1.15 0.90 -0.95 0.15 -1.15 0 -1 -0.75z" />
		<path
			d="M131 135.75 c0 -0.45 0.45 -0.75 1.25 -0.75 0.80 0 1.25 0.30 1.25 0.75 0 0.45 -0.45 0.75 -1.25 0.75 -0.80 0 -1.25 -0.30 -1.25 -0.75z" />
		<path
			d="M139 134.50 c-0.60 -0.35 -0.60 -0.60 -0.10 -1.10 0.45 -0.45 0.75 -0.45 1.20 0 0.40 0.40 0.45 0.75 0.10 1.10 -0.25 0.25 -0.75 0.30 -1.20 0z" />
		<path
			d="M134.50 132.50 c0 -1.15 1.10 -1.35 1.95 -0.35 0.65 0.80 0.25 1.35 -1.05 1.35 -0.55 0 -0.90 -0.35 -0.90 -1z" />
		<path
			d="M142.75 132.55 c-0.30 -0.55 1.65 -1.80 2.10 -1.35 0.15 0.15 0.15 0.60 0 1.05 -0.35 0.85 -1.65 1 -2.10 0.30z" />
		<path
			d="M130.35 131.80 c-0.40 -1.05 0.80 -1.95 1.55 -1.20 0.40 0.40 0.45 0.75 0.05 1.25 -0.75 0.85 -1.25 0.85 -1.60 -0.05z" />
		<path
			d="M126.35 130.70 c-0.70 -0.75 -0.30 -1.70 0.70 -1.70 0.70 0 0.95 0.25 0.85 0.85 -0.15 0.90 -1 1.35 -1.55 0.85z" />
		<path
			d="M139.50 129.80 c-0.50 -0.65 -0.45 -0.85 0.20 -1.10 1.10 -0.40 2.45 0.15 2.20 0.95 -0.35 0.90 -1.65 1 -2.40 0.15z" />
		<path
			d="M122 128.50 c0 -0.90 0.15 -0.95 1 -0.50 1.10 0.60 0.90 1.50 -0.30 1.50 -0.40 0 -0.70 -0.45 -0.70 -1z" />
		<path
			d="M131.50 127.75 c-0.50 -0.60 -0.45 -0.80 0.15 -1.05 0.85 -0.30 1.85 0.10 1.85 0.80 0 0.75 -1.45 0.95 -2 0.25z" />
		<path
			d="M136.20 126.75 c-0.35 -0.90 0.15 -1.75 1.10 -1.75 0.40 0 0.70 0.50 0.70 1.25 0 1.35 -1.35 1.75 -1.80 0.50z" />
		<path
			d="M127.70 125.95 c-0.15 -0.30 -0.05 -0.80 0.20 -1.05 0.65 -0.65 2.25 0.40 1.80 1.15 -0.35 0.60 -1.55 0.55 -2 -0.10z" />
		<path
			d="M132.70 123.95 c-0.45 -0.80 0.60 -1.65 1.55 -1.25 0.70 0.25 0.75 0.45 0.25 1.05 -0.75 0.90 -1.30 0.95 -1.80 0.20z" />
		<path
			d="M123.75 123.50 c-0.20 -0.35 -0.15 -0.80 0.15 -1.10 0.70 -0.70 2.25 -0.10 2 0.75 -0.30 0.80 -1.70 1.05 -2.15 0.35z" />
		<path
			d="M119.75 121.50 c-0.20 -0.35 -0.15 -0.80 0.15 -1.10 0.70 -0.70 2.25 -0.10 2 0.75 -0.30 0.80 -1.70 1.05 -2.15 0.35z" />
		<path
			d="M129.70 121.25 c-0.50 -1.30 0.65 -2.10 1.60 -1.15 0.75 0.75 0.75 0.85 -0.25 1.35 -0.85 0.50 -1.10 0.45 -1.35 -0.20z" />
		<path
			d="M156.65 118.40 c-1.95 -2.10 -2.45 -4.25 -1.45 -6.55 1.75 -4.30 7.95 -4.45 10.10 -0.30 2 3.90 -0.90 8.45 -5.40 8.45 -1.25 0 -2.10 -0.40 -3.25 -1.60z" />
		<path
			d="M126.35 118.15 c-0.70 -0.65 -0.30 -1.15 0.90 -1.15 0.80 0 1.25 0.30 1.25 0.75 0 0.75 -1.55 1.05 -2.15 0.40z" />
	</g>
	<g fill="#000000">
		<path
			d="M273.45 170.45 c-6.50 -1 -11.55 -5.70 -12.95 -11.95 -0.40 -1.85 -0.55 -5.90 -0.40 -12.25 0.20 -8.55 0.35 -9.75 1.35 -11.90 2.20 -4.70 5.35 -7.20 10.80 -8.65 4.90 -1.35 10.15 -0.45 14.10 2.45 2.10 1.50 4.65 4.75 4.65 5.95 0 0.60 -4.40 3.40 -5.85 3.80 -0.35 0.10 -1.35 -0.65 -2.20 -1.65 -3.35 -3.75 -8.35 -4.20 -11.95 -0.95 -2.70 2.45 -3.15 4.55 -2.90 13.75 0.20 8.50 0.60 9.95 3.45 12 1.90 1.35 5.65 1.80 8.15 0.95 1 -0.30 2.55 -1.45 3.40 -2.50 l1.60 -1.90 2.30 1.20 c3.90 2.05 4.25 2.45 3.50 4.20 -0.80 1.90 -3.70 4.80 -6.10 6 -1.60 0.85 -2.90 1.15 -7.40 1.70 -0.70 0.10 -2.30 0 -3.55 -0.25z" />
		<path
			d="M187.85 169.65 c-0.10 -0.25 -0.15 -2.10 -0.15 -4.15 l0.05 -3.75 5.65 -0.15 5.60 -0.15 0 -22.95 0 -23 -5.65 0 -5.65 0 0.05 -4.15 0 -4.10 15 -0.15 c8.25 -0.05 15.20 -0.05 15.50 0.10 0.30 0.10 0.45 1.80 0.35 4.20 l-0.20 4.05 -5.30 0.15 -5.35 0.15 -0.15 22.90 -0.10 22.85 5.50 0 5.50 0 0 4.25 0 4.25 -15.20 0 c-8.40 0 -15.35 -0.15 -15.45 -0.35z" />
		<path
			d="M223.40 169.70 c-0.25 -0.20 -0.40 -2 -0.40 -4 l0 -3.65 9.30 -0.15 9.30 -0.15 1.45 -1.65 c1.90 -2.10 2 -4.60 0.20 -6 -0.70 -0.55 -3.45 -1.70 -6.15 -2.55 -6.50 -2.10 -10.95 -4.45 -12.80 -6.75 -1.30 -1.60 -1.55 -2.35 -1.70 -5.30 -0.25 -4.40 0.50 -6.60 3.30 -9.60 3.15 -3.40 5.20 -3.90 15.70 -3.90 l8.40 0 0 4 0 4 -8.20 0 -8.20 0 -1.55 1.45 c-1.55 1.45 -2.05 3.55 -1.15 4.85 0.65 1.05 3.75 2.50 8.85 4.20 6.25 2.05 8.15 3 10.15 5.05 2.20 2.25 3 5.20 2.55 9.25 -0.60 4.65 -2.50 7.40 -6.70 9.60 -2.40 1.30 -2.85 1.35 -12.25 1.50 -5.35 0.10 -9.90 0 -10.10 -0.20z" />
		<path
			d="M300.30 169.20 c-0.15 -0.45 -0.30 -12.75 -0.25 -27.40 l0.05 -26.55 -3.05 -0.15 -3.05 -0.15 0 -4 0 -4 7.15 0.15 7.10 0.15 0.15 18.40 0.10 18.35 3.75 0 3.75 0 4.50 -9 4.50 -9 4 0 c2.35 0 4 0.20 4 0.50 0 0.25 -2.40 5.20 -5.35 10.95 l-5.35 10.45 5.35 10.50 c2.95 5.75 5.35 10.75 5.35 11.05 0 0.35 -1.40 0.55 -4 0.55 l-4 0 -4.50 -9 -4.50 -9 -3.75 0 -3.75 0 -0.10 8.90 -0.15 8.85 -3.80 0.15 c-3.20 0.10 -3.90 0 -4.15 -0.70z" />
		<path
			d="M334.50 166 l0 -4 4 0 4 0 0 -14 0 -13.95 -3.10 -0.15 -3.15 -0.15 0 -3.85 0 -3.90 7.10 0 7.15 0 0 2.10 0 2.10 1.40 -1.30 c2.35 -2.30 6.45 -3.90 10 -3.90 l3.15 0 -0.15 4.35 -0.15 4.40 -4.05 0.35 c-4.35 0.35 -7.15 1.45 -9.10 3.50 -1.10 1.20 -1.10 1.40 -1 12.70 l0.15 11.45 3.90 0.15 3.85 0.15 0 3.95 0 4 -12 0 -12 0 0 -4z" />
		<path
			d="M376.35 169.45 c-4.30 -1 -7.75 -4.25 -8.90 -8.35 -0.85 -2.95 -0.75 -7.95 0.20 -10.20 1 -2.45 3.65 -5.25 6.05 -6.55 1.75 -0.90 3.10 -1.10 9.70 -1.25 l7.60 -0.20 -0.05 -1.60 c-0.05 -2.65 -1.10 -4.95 -2.90 -6.15 -1.55 -1.05 -2.25 -1.15 -8.35 -1.15 l-6.70 0 0 -4.05 0 -4 7.90 0.15 c7.40 0.15 8 0.25 10.70 1.55 1.85 0.90 3.40 2.15 4.40 3.50 2.80 3.80 3 5.40 3 22.95 l0 15.90 -10.35 -0.05 c-5.75 -0.05 -11.25 -0.25 -12.30 -0.50z m14.55 -13.05 l0.15 -5.40 -5.80 0 c-5.90 0 -7.05 0.25 -9.10 2.15 -1.40 1.25 -1.55 4.55 -0.35 6.30 1.45 2 3.45 2.55 9.45 2.40 l5.50 -0.10 0.15 -5.35z" />
	</g>
</svg>